<?xml version="1.0" standalone="no"?><!DOCTYPE svg PUBLIC "-//W3C//DTD SVG 1.1//EN" "http://www.w3.org/Graphics/SVG/1.1/DTD/svg11.dtd"><svg t="1690892407177" class="icon" viewBox="0 0 1024 1024" version="1.1" xmlns="http://www.w3.org/2000/svg" p-id="23205" xmlns:xlink="http://www.w3.org/1999/xlink" width="200" height="200"><path d="M658.176 959.232h-443.904c-67.1232 0-121.5488-54.4256-121.5488-121.5488V277.6576c0-67.1232 54.4256-121.5488 121.5488-121.5488h443.904c67.1232 0 121.5488 54.4256 121.5488 121.5488v560.0256c0 67.1232-54.4256 121.5488-121.5488 121.5488z" fill="#80B7F9" p-id="23206"></path><path d="M754.432 866.6112H335.2576c-67.1232 0-121.5488-54.4256-121.5488-121.5488V184.9856c0-67.1232 54.4256-121.5488 121.5488-121.5488h419.1744c67.1232 0 121.5488 54.4256 121.5488 121.5488v560.0256c0.0512 67.1744-54.3744 121.6-121.5488 121.6z" fill="#80B7F9" p-id="23207"></path><path d="M658.7392 156.1088H218.1632c-2.8672 10.8544-4.4544 22.272-4.4544 34.048v549.7344c0 69.9904 54.1696 126.72 121.0368 126.72h420.3008c7.0656 0 14.0288-0.6656 20.7872-1.8944 2.56-10.2912 3.9424-21.0432 3.9424-32.1536V282.7776c-0.0512-69.9392-54.2208-126.6688-121.0368-126.6688z" fill="#3E8BF8" p-id="23208"></path><path d="M532.48 534.0672H213.7088c-22.6304 0-40.96-18.3296-40.96-40.96s18.3296-40.96 40.96-40.96H532.48c22.6304 0 40.96 18.3296 40.96 40.96s-18.3296 40.96-40.96 40.96zM532.48 348.928H213.7088c-22.6304 0-40.96-18.3296-40.96-40.96s18.3296-40.96 40.96-40.96H532.48c22.6304 0 40.96 18.3296 40.96 40.96s-18.3296 40.96-40.96 40.96zM431.0016 719.2576H213.7088c-22.6304 0-40.96-18.3296-40.96-40.96s18.3296-40.96 40.96-40.96h217.2928c22.6304 0 40.96 18.3296 40.96 40.96s-18.3296 40.96-40.96 40.96z" fill="#FFFFFF" p-id="23209"></path><path d="M920.9856 863.2832l-39.3216-42.3936a176.0256 176.0256 0 0 0 33.024-102.8608c0-97.6896-79.4624-177.2032-177.2032-177.2032s-177.2032 79.4624-177.2032 177.2032 79.4624 177.2032 177.2032 177.2032c33.4848 0 64.8704-9.3696 91.5968-25.5488l39.2704 42.3936a35.65056 35.65056 0 0 0 26.2656 11.4688c8.704 0 17.4592-3.1744 24.3712-9.5744a35.8144 35.8144 0 0 0 1.9968-50.688z m-288.9728-145.2544c0-58.1632 47.3088-105.5232 105.5232-105.5232s105.5232 47.3088 105.5232 105.5232-47.3088 105.5232-105.5232 105.5232-105.5232-47.3088-105.5232-105.5232z" fill="#80B7F9" p-id="23210"></path></svg>